<svg xmlns="http://www.w3.org/2000/svg" width="430" height="430" style="width:100%;height:100%;transform:translate3d(0,0,0);content-visibility:visible" viewBox="0 0 430 430"><defs><clipPath id="l"><path d="M0 0h430v430H0z"/></clipPath><clipPath id="C"><path d="M0 0h430v430H0z"/></clipPath><clipPath id="B"><path d="M0 0h430v430H0z"/></clipPath><clipPath id="A"><path d="M0 0h430v430H0z"/></clipPath><clipPath id="x"><path d="M0 0h430v430H0z"/></clipPath><clipPath id="v"><path d="M0 0h430v430H0z"/></clipPath><clipPath id="t"><path d="M0 0h430v430H0z"/></clipPath><clipPath id="s"><path d="M0 0h430v430H0z"/></clipPath><clipPath id="r"><path d="M0 0h430v430H0z"/></clipPath><clipPath id="p"><path d="M0 0h430v430H0z"/></clipPath><clipPath id="n"><path d="M0 0h430v430H0z"/></clipPath><clipPath id="m"><path d="M0 0h430v430H0z"/></clipPath><mask id="z" mask-type="alpha" maskUnits="userSpaceOnUse"><g filter="url(#a)"><path fill="#fff" d="M0 0h430v430H0z" opacity="0"/><use xmlns:a0="http://www.w3.org/1999/xlink" a0:href="#b"/></g></mask><mask id="y" mask-type="alpha" maskUnits="userSpaceOnUse"><g filter="url(#c)"><path fill="#fff" d="M0 0h430v430H0z" opacity="0"/><use xmlns:a1="http://www.w3.org/1999/xlink" a1:href="#d"/></g></mask><mask id="w" mask-type="alpha" maskUnits="userSpaceOnUse"><g filter="url(#e)"><path fill="#fff" d="M0 0h430v430H0z" opacity="0"/><use xmlns:a2="http://www.w3.org/1999/xlink" a2:href="#f"/></g></mask><mask id="u" mask-type="alpha" maskUnits="userSpaceOnUse"><g filter="url(#g)"><path fill="#fff" d="M0 0h430v430H0z" opacity="0"/><use xmlns:a3="http://www.w3.org/1999/xlink" a3:href="#h"/></g></mask><mask id="q" mask-type="alpha"><use xmlns:a4="http://www.w3.org/1999/xlink" a4:href="#i"/></mask><mask id="o" mask-type="alpha" maskUnits="userSpaceOnUse"><g filter="url(#j)"><path fill="#fff" d="M0 0h430v430H0z" opacity="0"/><use xmlns:a5="http://www.w3.org/1999/xlink" a5:href="#k"/></g></mask><filter id="a" width="100%" height="100%" x="0%" y="0%" filterUnits="objectBoundingBox"><feComponentTransfer in="SourceGraphic"><feFuncA tableValues="1.0 0.0" type="table"/></feComponentTransfer></filter><filter id="c" width="100%" height="100%" x="0%" y="0%" filterUnits="objectBoundingBox"><feComponentTransfer in="SourceGraphic"><feFuncA tableValues="1.0 0.0" type="table"/></feComponentTransfer></filter><filter id="e" width="100%" height="100%" x="0%" y="0%" filterUnits="objectBoundingBox"><feComponentTransfer in="SourceGraphic"><feFuncA tableValues="1.0 0.0" type="table"/></feComponentTransfer></filter><filter id="g" width="100%" height="100%" x="0%" y="0%" filterUnits="objectBoundingBox"><feComponentTransfer in="SourceGraphic"><feFuncA tableValues="1.0 0.0" type="table"/></feComponentTransfer></filter><filter id="j" width="100%" height="100%" x="0%" y="0%" filterUnits="objectBoundingBox"><feComponentTransfer in="SourceGraphic"><feFuncA tableValues="1.0 0.0" type="table"/></feComponentTransfer></filter><path id="b" fill-opacity="0" stroke-linecap="round" stroke-linejoin="round" style="display:none"/><path id="d" fill-opacity="0" stroke-linecap="round" stroke-linejoin="round" style="display:none"/><path id="f" fill-opacity="0" stroke-linecap="round" stroke-linejoin="round" style="display:none"/><path id="i" style="display:none"/><path id="k" style="display:none"/><g id="h" style="display:none"><path/><path fill-opacity="0" stroke-linecap="round" stroke-linejoin="round"/><path/><path fill-opacity="0" stroke-linecap="round" stroke-linejoin="round"/></g></defs><g clip-path="url(#l)"><g fill="none" clip-path="url(#m)" style="display:none"><path class="primary" style="display:none"/><path class="primary" style="display:none"/><path class="secondary" style="display:none"/></g><g clip-path="url(#n)" style="display:none"><g mask="url(#o)" style="display:none"><path fill="none" class="primary"/></g><path fill="none" class="secondary" style="display:none"/></g><g clip-path="url(#p)" style="display:none"><g mask="url(#q)" style="display:none"><path fill="none" class="primary"/><path class="primary"/></g><path fill="none" class="primary" style="display:none"/></g><g fill="none" clip-path="url(#r)" style="display:none"><path class="secondary" style="display:none"/><path class="primary" style="display:none"/><path class="primary" style="display:none"/></g><g fill="none" clip-path="url(#s)" style="display:none"><path class="primary" style="display:none"/><path class="primary" style="display:none"/><path class="primary" style="display:none"/></g><g clip-path="url(#t)" style="display:none"><g mask="url(#u)" style="display:none"><path fill="none" class="primary"/></g><path fill="none" class="secondary" style="display:none"/><path fill="none" class="secondary" style="display:none"/></g><g clip-path="url(#v)" style="display:none"><g mask="url(#w)" style="display:none"><path fill="none" class="primary"/></g><path fill="none" class="secondary" style="display:none"/></g><g clip-path="url(#x)" style="display:none"><g mask="url(#y)" style="display:none"><path fill="none" class="secondary"/></g><g mask="url(#z)" style="display:none"><path fill="none" class="primary"/></g><path fill="none" class="secondary" style="display:none"/></g><g fill="none" clip-path="url(#A)" style="display:none"><path class="primary" style="display:none"/><path class="secondary" style="display:none"/></g><g fill="none" stroke="#232323" stroke-linecap="round" stroke-linejoin="round" stroke-width="12" clip-path="url(#B)" style="display:block"><path d="M144.945 14.956c19.992-19.992 30.034-46.214 30.034-72.394 0-26.222-10.042-52.445-30.034-72.437-17.062-17.08-38.65-26.872-60.907-29.375-29.9-3.363-60.994 6.429-83.919 29.375l-.123.123-.126-.123c-19.992-19.992-46.214-30.033-72.394-30.033-26.222 0-52.44 10.041-72.432 30.033-40.029 39.988-40.029 104.843 0 144.831L-.004 159.908z" class="primary" style="display:block" transform="translate(215 215)"/><path d="M-36.568-124.105c-10.267-5.41-20.84-8.968-30.46-8.968-22.146 0-39.967 5.74-56.86 22.615-12.777 12.763-19.984 26.321-22.181 40.073" class="secondary" style="display:block" transform="translate(215 215)"/></g><g fill="none" clip-path="url(#C)" style="display:none"><path class="secondary" style="display:none"/><path class="primary" style="display:none"/></g></g></svg>